<svg width="20" height="10" viewBox="0 0 20 10" fill="none" xmlns="http://www.w3.org/2000/svg">
  <path  d="M0.229141 5.39676C0.229376 5.39699 0.22957 5.39727 0.229843 5.3975L4.31203 9.46C4.61785 9.76434 5.1125 9.76321 5.41691 9.45735C5.72129 9.15153 5.72012 8.65688 5.4143 8.3525L2.67352 5.625L19.2188 5.625C19.6502 5.625 20 5.27524 20 4.84375C20 4.41227 19.6502 4.0625 19.2188 4.0625L2.67355 4.0625L5.41426 1.335C5.72008 1.03063 5.72125 0.535977 5.41687 0.230157C5.11246 -0.0757408 4.61777 -0.0767956 4.31199 0.227501L0.229805 4.29C0.22957 4.29024 0.229374 4.29051 0.229101 4.29074C-0.0768757 4.59613 -0.0758991 5.09238 0.229141 5.39676Z" fill="white"/>
</svg>
