<svg width="20" height="20" viewBox="0 0 20 20" fill="none" xmlns="http://www.w3.org/2000/svg">
<path d="M16.7314 5.28419L16.2952 3.97693C16.2074 3.7138 15.9612 3.53638 15.6838 3.53638H4.31566C4.03828 3.53638 3.79203 3.71384 3.70422 3.97693L3.26801 5.28419C3.16918 5.58037 3.38961 5.88631 3.70184 5.88631H16.2976C16.6098 5.88631 16.8303 5.58037 16.7314 5.28419Z" fill="#303030"/>
<path d="M5.29697 19.2097C5.34697 19.6596 5.72728 20 6.18002 20H13.7471C14.1999 20 14.5802 19.6596 14.6302 19.2097L15.9804 7.05823H3.94678L5.29697 19.2097Z" fill="#303030"/>
<path d="M8.82373 1.67961C8.82373 1.39965 9.05151 1.17188 9.33147 1.17188H11.0576C11.3376 1.17188 11.5653 1.39965 11.5653 1.67961V2.36449H12.7372V1.67961C12.7372 0.753477 11.9837 0 11.0576 0H9.33147C8.40533 0 7.65186 0.753477 7.65186 1.67961V2.36449H8.82373V1.67961Z" fill="#303030"/>
</svg>
